# xmcd CD database file
#
# Track frame offsets:
#	187
#	8427
#	24117
#	34722
#	44382
#	56702
#	67990
#	74807
#	88297
#	100170
#	112860
#	127892
#	143097
#	152055
#	169257
#	180835
#	191720
#	199782
#	208342
#	220295
#
# Disc length: 3097 seconds
#
# Revision: 1
# Processed by: cddbd v1.5.2PL0 Copyright (c) Steve Scherf et al.
# Submitted via: CDex 1.77
#
DISCID=170c1714
DTITLE=PEREZ PRADO and His Orchestra - THE BEST OF MAMBO
DYEAR=1900
DGENRE=Country
TTITLE0=HISTORIA DE UN AMOR
TTITLE1=LA MACARENA
TTITLE2=MAMBO No.5
TTITLE3=CACHITO
TTITLE4=QUIZAS, QUIZAS, QUIZAS
TTITLE5=BESAME MUCHO
TTITLE6=MAMBO No.8
TTITLE7=TABU
TTITLE8=J'AI PLEURE DE JOIE
TTITLE9=LA BAMBA
TTITLE10=EL BIMBO
TTITLE11=COPACABANA
TTITLE12=CEREZO ROSA
TTITLE13=JUNGLE
TTITLE14=LA REINE DE SABA
TTITLE15=EL CONDOR PASA
TTITLE16=AQUELLOS OJOS GRISES
TTITLE17=EL HUMAHUAQUENO
TTITLE18=CORAZON DE MELON
TTITLE19=TOMBE LA NEIGE
EXTD=
EXTT0=
EXTT1=
EXTT2=
EXTT3=
EXTT4=
EXTT5=
EXTT6=
EXTT7=
EXTT8=
EXTT9=
EXTT10=
EXTT11=
EXTT12=
EXTT13=
EXTT14=
EXTT15=
EXTT16=
EXTT17=
EXTT18=
EXTT19=
PLAYORDER=
